<svg width="48" height="48" viewBox="0 0 48 48" fill="none" xmlns="http://www.w3.org/2000/svg">
<path d="M4.76837e-07 37.6C4.76837e-07 41.9328 12.8672 42.4 18.4 42.4C25.2528 42.4 30.8264 41.7344 33.8608 40.5664C34.969 41.6564 36.4347 42.3079 37.9864 42.4C38.6368 42.4 38.6192 42.3656 42.8312 41.4176C45.14 40.8976 46.824 38.5104 47.5768 34.6976C48.2621 30.4783 48.0902 26.1642 47.0712 22.0128C44.8536 12.1656 39.52 5.2584 34.9216 6.2968L31.02 7.1768C29.3792 7.5464 28.0944 8.8832 27.212 10.8824C21.4616 9.3208 20.8424 13.6 15.3136 12.808C10.48 12.1176 10.4 6.632 10.4 6.4C10.4003 6.05892 10.1843 5.75519 9.86198 5.64349C9.53971 5.5318 9.18207 5.63671 8.9712 5.9048C8.804 6.1176 5.0592 10.9696 5.8168 16.7992C1.4344 17.4936 0.800001 18.3608 0.800001 19.2V21.92C0.326722 22.1762 0.0229172 22.6623 4.76837e-07 23.2L4.76837e-07 37.6ZM7.9504 21.8832C13.9656 22.4779 20.0203 22.5617 26.0496 22.1336C26.1344 22.9336 26.2408 23.7496 26.3848 24.5808C21.0616 24.8896 7.0248 25.0656 2.4 23.4728V20.8C4.20191 21.3749 6.06455 21.7384 7.9504 21.8832ZM1.6 37.6V28.044C4.97766 28.9632 8.45098 29.4854 11.9496 29.6C12.2354 29.6179 12.509 29.4819 12.6674 29.2433C12.8258 29.0047 12.8449 28.6998 12.7174 28.4433C12.59 28.1868 12.3354 28.0179 12.0496 28C6.2008 27.636 3.1672 26.9384 1.6 26.3552V24.88C6.4072 26.7264 21.2336 26.496 26.6952 26.1672C27.6608 30.6704 29.5752 35.832 32.6104 39.3144C29.6448 40.2632 24.5832 40.8 18.4 40.8C6.812 40.8 1.6 38.9288 1.6 37.6ZM45.5104 22.3632C46.4812 26.2973 46.6499 30.3865 46.0064 34.3872C45.3936 37.496 44.1088 39.4896 42.48 39.8568C39.2744 40.5768 34.4 34.92 32.24 25.3512C30.08 15.7824 32.0696 8.5792 35.2736 7.8576C35.4591 7.81645 35.6485 7.7958 35.8384 7.796C39.0256 7.796 43.4784 13.3408 45.5104 22.3632ZM31.3712 8.7368L31.856 8.6272C26.8648 16.1808 31.3136 35.9416 39.0632 40.6272L38.5776 40.7368C36.948 41.1032 34.932 39.8568 33.0456 37.308C30.7498 33.9692 29.1494 30.2023 28.34 26.232C27.9651 24.56 27.7007 22.8652 27.5488 21.1584C26.9672 14.2024 28.7648 9.324 31.3712 8.7368ZM8.0952 10.9648C8.1752 14.6496 9.988 17.2392 13.3472 18.3592C13.7669 18.4988 14.2204 18.2717 14.36 17.852C14.4996 17.4323 14.2725 16.9788 13.8528 16.8392C10.4128 15.692 9.6128 12.8936 9.6984 10.3192C10.6487 12.5331 12.6971 14.081 15.0864 14.3904C21.1456 15.2584 21.7832 11.1792 26.652 12.3904C25.9436 15.0448 25.6947 17.8008 25.916 20.5392C20.1368 20.9468 14.3338 20.8794 8.5656 20.3376C7.06087 17.4283 6.88932 14.0101 8.0952 10.9648ZM6.1216 18.3712C6.2803 18.9637 6.47752 19.5452 6.712 20.112C5.3468 19.9712 4.00368 19.6655 2.712 19.2016C3.81034 18.7865 4.95541 18.5077 6.1216 18.3712Z" fill="#00BF78"/>
<path d="M15.2 29.6C15.6418 29.6 16 29.2418 16 28.8C16 28.3582 15.6418 28 15.2 28C14.7582 28 14.4 28.3582 14.4 28.8C14.4 29.2418 14.7582 29.6 15.2 29.6Z" fill="#00BF78"/>
<path d="M33.7096 17.8104C33.7538 18.25 34.146 18.5706 34.5856 18.5264C35.0252 18.4822 35.3458 18.09 35.3016 17.6504C34.92 13.8328 35.6888 12.6248 36.1816 12.2448C36.543 11.995 37.0019 11.9325 37.4168 12.0768C37.826 12.2309 38.2832 12.0279 38.4432 11.621C38.6033 11.2141 38.407 10.754 38.0024 10.588C37.0754 10.2398 36.0357 10.3782 35.232 10.9568C33.8696 11.9816 33.36 14.2872 33.7096 17.8104Z" fill="#00BF78"/>
<path d="M40.4 35.9432C41.3274 36.2915 42.3675 36.1528 43.1712 35.5736C44.5312 34.5488 45.0456 32.2432 44.6912 28.72C44.647 28.2804 44.2548 27.9598 43.8152 28.004C43.3756 28.0482 43.055 28.4404 43.0992 28.88C43.4816 32.6976 42.712 33.9048 42.2192 34.2856C41.8584 34.536 41.3996 34.5987 40.9848 34.4544C40.7188 34.3497 40.4172 34.3947 40.1935 34.5727C39.9698 34.7506 39.8581 35.0344 39.9003 35.3171C39.9426 35.5998 40.1324 35.8385 40.3984 35.9432H40.4Z" fill="#00BF78"/>
</svg>
