<svg width="187" height="93" viewBox="0 0 187 93" fill="none" xmlns="http://www.w3.org/2000/svg">
<path d="M9.8714 85.7395L5.8074 80.2195L7.1034 79.4195L11.6954 85.7395H9.8714ZM2.3354 85.7395V74.5395H3.9034V85.7395H2.3354ZM3.4234 80.8115V79.4035H7.0554V80.8115H3.4234ZM7.2474 80.3155L5.7754 80.0915L9.7914 74.5395H11.5034L7.2474 80.3155ZM16.602 85.8355C15.7487 85.8355 14.9914 85.6488 14.33 85.2755C13.6687 84.9021 13.146 84.3901 12.762 83.7395C12.378 83.0781 12.186 82.3315 12.186 81.4995C12.186 80.6568 12.378 79.9101 12.762 79.2595C13.146 78.6088 13.6687 78.1021 14.33 77.7395C14.9914 77.3661 15.7487 77.1795 16.602 77.1795C17.4447 77.1795 18.1967 77.3661 18.858 77.7395C19.53 78.1021 20.0527 78.6088 20.426 79.2595C20.81 79.8995 21.002 80.6461 21.002 81.4995C21.002 82.3421 20.81 83.0888 20.426 83.7395C20.0527 84.3901 19.53 84.9021 18.858 85.2755C18.1967 85.6488 17.4447 85.8355 16.602 85.8355ZM16.602 84.4915C17.146 84.4915 17.6314 84.3688 18.058 84.1235C18.4954 83.8781 18.8367 83.5315 19.082 83.0835C19.3274 82.6248 19.45 82.0968 19.45 81.4995C19.45 80.8915 19.3274 80.3688 19.082 79.9315C18.8367 79.4835 18.4954 79.1368 18.058 78.8915C17.6314 78.6461 17.146 78.5235 16.602 78.5235C16.058 78.5235 15.5727 78.6461 15.146 78.8915C14.7194 79.1368 14.378 79.4835 14.122 79.9315C13.866 80.3688 13.738 80.8915 13.738 81.4995C13.738 82.0968 13.866 82.6248 14.122 83.0835C14.378 83.5315 14.7194 83.8781 15.146 84.1235C15.5727 84.3688 16.058 84.4915 16.602 84.4915ZM27.716 85.8355C27.012 85.8355 26.3667 85.6755 25.78 85.3555C25.204 85.0248 24.74 84.5395 24.388 83.8995C24.0467 83.2595 23.876 82.4595 23.876 81.4995C23.876 80.5395 24.0414 79.7395 24.372 79.0995C24.7134 78.4595 25.172 77.9795 25.748 77.6595C26.3347 77.3395 26.9907 77.1795 27.716 77.1795C28.548 77.1795 29.284 77.3608 29.924 77.7235C30.564 78.0861 31.0707 78.5928 31.444 79.2435C31.8174 79.8835 32.004 80.6355 32.004 81.4995C32.004 82.3635 31.8174 83.1208 31.444 83.7715C31.0707 84.4221 30.564 84.9288 29.924 85.2915C29.284 85.6541 28.548 85.8355 27.716 85.8355ZM23.22 88.8435V77.2595H24.692V79.5475L24.596 81.5155L24.756 83.4835V88.8435H23.22ZM27.588 84.4915C28.132 84.4915 28.6174 84.3688 29.044 84.1235C29.4814 83.8781 29.8227 83.5315 30.068 83.0835C30.324 82.6248 30.452 82.0968 30.452 81.4995C30.452 80.8915 30.324 80.3688 30.068 79.9315C29.8227 79.4835 29.4814 79.1368 29.044 78.8915C28.6174 78.6461 28.132 78.5235 27.588 78.5235C27.0547 78.5235 26.5694 78.6461 26.132 78.8915C25.7054 79.1368 25.364 79.4835 25.108 79.9315C24.8627 80.3688 24.74 80.8915 24.74 81.4995C24.74 82.0968 24.8627 82.6248 25.108 83.0835C25.364 83.5315 25.7054 83.8781 26.132 84.1235C26.5694 84.3688 27.0547 84.4915 27.588 84.4915ZM37.8677 85.8355C37.0143 85.8355 36.257 85.6488 35.5957 85.2755C34.9343 84.9021 34.4117 84.3901 34.0277 83.7395C33.6437 83.0781 33.4517 82.3315 33.4517 81.4995C33.4517 80.6568 33.6437 79.9101 34.0277 79.2595C34.4117 78.6088 34.9343 78.1021 35.5957 77.7395C36.257 77.3661 37.0143 77.1795 37.8677 77.1795C38.7103 77.1795 39.4623 77.3661 40.1237 77.7395C40.7957 78.1021 41.3183 78.6088 41.6917 79.2595C42.0757 79.8995 42.2677 80.6461 42.2677 81.4995C42.2677 82.3421 42.0757 83.0888 41.6917 83.7395C41.3183 84.3901 40.7957 84.9021 40.1237 85.2755C39.4623 85.6488 38.7103 85.8355 37.8677 85.8355ZM37.8677 84.4915C38.4117 84.4915 38.897 84.3688 39.3237 84.1235C39.761 83.8781 40.1023 83.5315 40.3477 83.0835C40.593 82.6248 40.7157 82.0968 40.7157 81.4995C40.7157 80.8915 40.593 80.3688 40.3477 79.9315C40.1023 79.4835 39.761 79.1368 39.3237 78.8915C38.897 78.6461 38.4117 78.5235 37.8677 78.5235C37.3237 78.5235 36.8383 78.6461 36.4117 78.8915C35.985 79.1368 35.6437 79.4835 35.3877 79.9315C35.1317 80.3688 35.0037 80.8915 35.0037 81.4995C35.0037 82.0968 35.1317 82.6248 35.3877 83.0835C35.6437 83.5315 35.985 83.8781 36.4117 84.1235C36.8383 84.3688 37.3237 84.4915 37.8677 84.4915ZM45.8532 85.7395V78.2035L46.2372 78.6035H42.7492V77.2595H50.4932V78.6035H47.0212L47.3892 78.2035V85.7395H45.8532ZM58.2078 85.7395L54.9278 81.6115L56.1918 80.8435L60.0158 85.7395H58.2078ZM52.0638 85.7395V77.2595H53.5998V85.7395H52.0638ZM53.1358 82.1555V80.8435H55.9358V82.1555H53.1358ZM56.3198 81.6755L54.8958 81.4835L58.1438 77.2595H59.7918L56.3198 81.6755ZM64.977 85.8355C64.1237 85.8355 63.3664 85.6488 62.705 85.2755C62.0437 84.9021 61.521 84.3901 61.137 83.7395C60.753 83.0781 60.561 82.3315 60.561 81.4995C60.561 80.6568 60.753 79.9101 61.137 79.2595C61.521 78.6088 62.0437 78.1021 62.705 77.7395C63.3664 77.3661 64.1237 77.1795 64.977 77.1795C65.8197 77.1795 66.5717 77.3661 67.233 77.7395C67.905 78.1021 68.4277 78.6088 68.801 79.2595C69.185 79.8995 69.377 80.6461 69.377 81.4995C69.377 82.3421 69.185 83.0888 68.801 83.7395C68.4277 84.3901 67.905 84.9021 67.233 85.2755C66.5717 85.6488 65.8197 85.8355 64.977 85.8355ZM64.977 84.4915C65.521 84.4915 66.0064 84.3688 66.433 84.1235C66.8704 83.8781 67.2117 83.5315 67.457 83.0835C67.7024 82.6248 67.825 82.0968 67.825 81.4995C67.825 80.8915 67.7024 80.3688 67.457 79.9315C67.2117 79.4835 66.8704 79.1368 66.433 78.8915C66.0064 78.6461 65.521 78.5235 64.977 78.5235C64.433 78.5235 63.9477 78.6461 63.521 78.8915C63.0944 79.1368 62.753 79.4835 62.497 79.9315C62.241 80.3688 62.113 80.8915 62.113 81.4995C62.113 82.0968 62.241 82.6248 62.497 83.0835C62.753 83.5315 63.0944 83.8781 63.521 84.1235C63.9477 84.3688 64.433 84.4915 64.977 84.4915ZM75.371 85.8355C74.4644 85.8355 73.6644 85.6488 72.971 85.2755C72.2884 84.9021 71.755 84.3901 71.371 83.7395C70.9977 83.0888 70.811 82.3421 70.811 81.4995C70.811 80.6568 70.9924 79.9101 71.355 79.2595C71.7284 78.6088 72.235 78.1021 72.875 77.7395C73.5257 77.3661 74.2564 77.1795 75.067 77.1795C75.8884 77.1795 76.6137 77.3608 77.243 77.7235C77.8724 78.0861 78.363 78.5981 78.715 79.2595C79.0777 79.9101 79.259 80.6728 79.259 81.5475C79.259 81.6115 79.2537 81.6861 79.243 81.7715C79.243 81.8568 79.2377 81.9368 79.227 82.0115H72.011V80.9075H78.427L77.803 81.2915C77.8137 80.7475 77.7017 80.2621 77.467 79.8355C77.2324 79.4088 76.907 79.0781 76.491 78.8435C76.0857 78.5981 75.611 78.4755 75.067 78.4755C74.5337 78.4755 74.059 78.5981 73.643 78.8435C73.227 79.0781 72.9017 79.4141 72.667 79.8515C72.4324 80.2781 72.315 80.7688 72.315 81.3235V81.5795C72.315 82.1448 72.443 82.6515 72.699 83.0995C72.9657 83.5368 73.3337 83.8781 73.803 84.1235C74.2724 84.3688 74.811 84.4915 75.419 84.4915C75.9204 84.4915 76.3737 84.4061 76.779 84.2355C77.195 84.0648 77.5577 83.8088 77.867 83.4675L78.715 84.4595C78.331 84.9075 77.851 85.2488 77.275 85.4835C76.7097 85.7181 76.075 85.8355 75.371 85.8355ZM85.9388 85.7395V77.2595H89.8748C90.8668 77.2595 91.6454 77.4515 92.2108 77.8355C92.7868 78.2088 93.0748 78.7421 93.0748 79.4355C93.0748 80.1288 92.8028 80.6675 92.2588 81.0515C91.7254 81.4248 91.0161 81.6115 90.1308 81.6115L90.3708 81.1955C91.3841 81.1955 92.1361 81.3821 92.6268 81.7555C93.1174 82.1288 93.3628 82.6781 93.3628 83.4035C93.3628 84.1395 93.0854 84.7155 92.5308 85.1315C91.9868 85.5368 91.1494 85.7395 90.0188 85.7395H85.9388ZM87.4428 84.5555H89.9068C90.5468 84.5555 91.0268 84.4595 91.3468 84.2675C91.6668 84.0648 91.8268 83.7448 91.8268 83.3075C91.8268 82.8595 91.6774 82.5341 91.3788 82.3315C91.0908 82.1181 90.6321 82.0115 90.0028 82.0115H87.4428V84.5555ZM87.4428 80.9075H89.7468C90.3334 80.9075 90.7761 80.8008 91.0748 80.5875C91.3841 80.3635 91.5388 80.0541 91.5388 79.6595C91.5388 79.2541 91.3841 78.9501 91.0748 78.7475C90.7761 78.5448 90.3334 78.4435 89.7468 78.4435H87.4428V80.9075ZM95.7669 85.7395V77.2595H97.3029V83.4355L102.503 77.2595H103.895V85.7395H102.359V79.5635L97.1749 85.7395H95.7669ZM112.668 85.0195V78.6035H108.988L108.908 80.2355C108.887 80.7688 108.85 81.2861 108.796 81.7875C108.754 82.2781 108.679 82.7315 108.572 83.1475C108.476 83.5635 108.332 83.9048 108.14 84.1715C107.948 84.4381 107.692 84.6035 107.372 84.6675L105.852 84.3955C106.183 84.4061 106.45 84.2995 106.652 84.0755C106.855 83.8408 107.01 83.5208 107.116 83.1155C107.234 82.7101 107.319 82.2515 107.372 81.7395C107.426 81.2168 107.468 80.6781 107.5 80.1235L107.628 77.2595H114.204V85.0195H112.668ZM105.516 87.7075V84.3955H115.5V87.7075H114.06V85.7395H106.972V87.7075H105.516ZM121.277 85.8355C120.371 85.8355 119.571 85.6488 118.877 85.2755C118.195 84.9021 117.661 84.3901 117.277 83.7395C116.904 83.0888 116.717 82.3421 116.717 81.4995C116.717 80.6568 116.899 79.9101 117.261 79.2595C117.635 78.6088 118.141 78.1021 118.781 77.7395C119.432 77.3661 120.163 77.1795 120.973 77.1795C121.795 77.1795 122.52 77.3608 123.149 77.7235C123.779 78.0861 124.269 78.5981 124.621 79.2595C124.984 79.9101 125.165 80.6728 125.165 81.5475C125.165 81.6115 125.16 81.6861 125.149 81.7715C125.149 81.8568 125.144 81.9368 125.133 82.0115H117.917V80.9075H124.333L123.709 81.2915C123.72 80.7475 123.608 80.2621 123.373 79.8355C123.139 79.4088 122.813 79.0781 122.397 78.8435C121.992 78.5981 121.517 78.4755 120.973 78.4755C120.44 78.4755 119.965 78.5981 119.549 78.8435C119.133 79.0781 118.808 79.4141 118.573 79.8515C118.339 80.2781 118.221 80.7688 118.221 81.3235V81.5795C118.221 82.1448 118.349 82.6515 118.605 83.0995C118.872 83.5368 119.24 83.8781 119.709 84.1235C120.179 84.3688 120.717 84.4915 121.325 84.4915C121.827 84.4915 122.28 84.4061 122.685 84.2355C123.101 84.0648 123.464 83.8088 123.773 83.4675L124.621 84.4595C124.237 84.9075 123.757 85.2488 123.181 85.4835C122.616 85.7181 121.981 85.8355 121.277 85.8355ZM131.18 85.8355C130.327 85.8355 129.569 85.6488 128.908 85.2755C128.247 84.9021 127.724 84.3901 127.34 83.7395C126.956 83.0781 126.764 82.3315 126.764 81.4995C126.764 80.6568 126.956 79.9101 127.34 79.2595C127.724 78.6088 128.247 78.1021 128.908 77.7395C129.569 77.3661 130.327 77.1795 131.18 77.1795C132.023 77.1795 132.775 77.3661 133.436 77.7395C134.108 78.1021 134.631 78.6088 135.004 79.2595C135.388 79.8995 135.58 80.6461 135.58 81.4995C135.58 82.3421 135.388 83.0888 135.004 83.7395C134.631 84.3901 134.108 84.9021 133.436 85.2755C132.775 85.6488 132.023 85.8355 131.18 85.8355ZM131.18 84.4915C131.724 84.4915 132.209 84.3688 132.636 84.1235C133.073 83.8781 133.415 83.5315 133.66 83.0835C133.905 82.6248 134.028 82.0968 134.028 81.4995C134.028 80.8915 133.905 80.3688 133.66 79.9315C133.415 79.4835 133.073 79.1368 132.636 78.8915C132.209 78.6461 131.724 78.5235 131.18 78.5235C130.636 78.5235 130.151 78.6461 129.724 78.8915C129.297 79.1368 128.956 79.4835 128.7 79.9315C128.444 80.3688 128.316 80.8915 128.316 81.4995C128.316 82.0968 128.444 82.6248 128.7 83.0835C128.956 83.5315 129.297 83.8781 129.724 84.1235C130.151 84.3688 130.636 84.4915 131.18 84.4915ZM145.727 85.8355C144.874 85.8355 144.116 85.6488 143.455 85.2755C142.794 84.9021 142.271 84.3901 141.887 83.7395C141.503 83.0781 141.311 82.3315 141.311 81.4995C141.311 80.6568 141.503 79.9101 141.887 79.2595C142.271 78.6088 142.794 78.1021 143.455 77.7395C144.116 77.3661 144.874 77.1795 145.727 77.1795C146.57 77.1795 147.322 77.3661 147.983 77.7395C148.655 78.1021 149.178 78.6088 149.551 79.2595C149.935 79.8995 150.127 80.6461 150.127 81.4995C150.127 82.3421 149.935 83.0888 149.551 83.7395C149.178 84.3901 148.655 84.9021 147.983 85.2755C147.322 85.6488 146.57 85.8355 145.727 85.8355ZM145.727 84.4915C146.271 84.4915 146.756 84.3688 147.183 84.1235C147.62 83.8781 147.962 83.5315 148.207 83.0835C148.452 82.6248 148.575 82.0968 148.575 81.4995C148.575 80.8915 148.452 80.3688 148.207 79.9315C147.962 79.4835 147.62 79.1368 147.183 78.8915C146.756 78.6461 146.271 78.5235 145.727 78.5235C145.183 78.5235 144.698 78.6461 144.271 78.8915C143.844 79.1368 143.503 79.4835 143.247 79.9315C142.991 80.3688 142.863 80.8915 142.863 81.4995C142.863 82.0968 142.991 82.6248 143.247 83.0835C143.503 83.5315 143.844 83.8781 144.271 84.1235C144.698 84.3688 145.183 84.4915 145.727 84.4915ZM156.642 85.7395V77.2595H158.178V80.8595H163.01V77.2595H164.546V85.7395H163.01V82.1875H158.178V85.7395H156.642ZM172.733 85.7395V83.9475L172.653 83.6115V80.5555C172.653 79.9048 172.461 79.4035 172.077 79.0515C171.703 78.6888 171.138 78.5075 170.381 78.5075C169.879 78.5075 169.389 78.5928 168.909 78.7635C168.429 78.9235 168.023 79.1421 167.693 79.4195L167.053 78.2675C167.49 77.9155 168.013 77.6488 168.621 77.4675C169.239 77.2755 169.885 77.1795 170.557 77.1795C171.719 77.1795 172.615 77.4621 173.245 78.0275C173.874 78.5928 174.189 79.4568 174.189 80.6195V85.7395H172.733ZM169.949 85.8355C169.319 85.8355 168.765 85.7288 168.285 85.5155C167.815 85.3021 167.453 85.0088 167.197 84.6355C166.941 84.2515 166.813 83.8195 166.813 83.3395C166.813 82.8808 166.919 82.4648 167.133 82.0915C167.357 81.7181 167.714 81.4195 168.205 81.1955C168.706 80.9715 169.378 80.8595 170.221 80.8595H172.909V81.9635H170.285C169.517 81.9635 168.999 82.0915 168.733 82.3475C168.466 82.6035 168.333 82.9128 168.333 83.2755C168.333 83.6915 168.498 84.0275 168.829 84.2835C169.159 84.5288 169.618 84.6515 170.205 84.6515C170.781 84.6515 171.282 84.5235 171.709 84.2675C172.146 84.0115 172.461 83.6381 172.653 83.1475L172.957 84.2035C172.754 84.7048 172.397 85.1048 171.885 85.4035C171.373 85.6915 170.727 85.8355 169.949 85.8355ZM180.65 85.8355C179.786 85.8355 179.013 85.6488 178.33 85.2755C177.658 84.9021 177.13 84.3901 176.746 83.7395C176.362 83.0888 176.17 82.3421 176.17 81.4995C176.17 80.6568 176.362 79.9101 176.746 79.2595C177.13 78.6088 177.658 78.1021 178.33 77.7395C179.013 77.3661 179.786 77.1795 180.65 77.1795C181.418 77.1795 182.101 77.3341 182.698 77.6435C183.306 77.9421 183.776 78.3901 184.106 78.9875L182.938 79.7395C182.661 79.3235 182.32 79.0195 181.914 78.8275C181.52 78.6248 181.093 78.5235 180.634 78.5235C180.08 78.5235 179.584 78.6461 179.146 78.8915C178.709 79.1368 178.362 79.4835 178.106 79.9315C177.85 80.3688 177.722 80.8915 177.722 81.4995C177.722 82.1075 177.85 82.6355 178.106 83.0835C178.362 83.5315 178.709 83.8781 179.146 84.1235C179.584 84.3688 180.08 84.4915 180.634 84.4915C181.093 84.4915 181.52 84.3955 181.914 84.2035C182.32 84.0008 182.661 83.6915 182.938 83.2755L184.106 84.0115C183.776 84.5981 183.306 85.0515 182.698 85.3715C182.101 85.6808 181.418 85.8355 180.65 85.8355Z" fill="white"/>
<g clip-path="url(#clip0_8_1117)">
<g opacity="0.75">
<path opacity="0.75" d="M96.0196 59.9081C112.219 59.9081 125.351 46.7757 125.351 30.5762C125.351 14.3767 112.219 1.24439 96.0196 1.24439C79.8201 1.24439 66.6877 14.3767 66.6877 30.5762C66.6877 46.7757 79.8201 59.9081 96.0196 59.9081Z" stroke="white" stroke-width="2"/>
<path opacity="0.75" d="M91.8013 23.2695L104.458 30.577L91.8013 37.8844V23.2695Z" stroke="white" stroke-width="2"/>
</g>
</g>
<defs>
<clipPath id="clip0_8_1117">
<rect width="60.2709" height="60.2709" fill="white" transform="translate(65.8849 0.441506)"/>
</clipPath>
</defs>
</svg>
